<svg xmlns="http://www.w3.org/2000/svg" viewBox="0 0 191.73 154.61"><defs><style>.cls-1,.cls-10,.cls-6,.cls-8,.cls-9{fill:none;}.cls-1,.cls-10,.cls-8,.cls-9{stroke:#fff;}.cls-1,.cls-6,.cls-8{stroke-miterlimit:10;}.cls-1,.cls-10{stroke-width:0.75px;}.cls-2,.cls-5{fill:#daeaea;}.cls-2{opacity:0.78;}.cls-3{fill:#7b893f;}.cls-4{fill:#a81818;}.cls-6{stroke:#000;}.cls-7{fill:#cee0ce;opacity:0.51;}.cls-8{stroke-width:0.5px;}.cls-10,.cls-9{stroke-linecap:round;stroke-linejoin:round;}</style></defs><title>Asset 15</title><g id="Layer_2" data-name="Layer 2"><g id="Martini"><path class="cls-1" d="M.64,20.8,52.91,147.75a3.47,3.47,0,0,0,2.42,2.06c8.06,1.87,42.55,8.9,72.08.07a3.5,3.5,0,0,0,2.22-2L182,20.8A3.48,3.48,0,0,0,178.73,16H3.86A3.48,3.48,0,0,0,.64,20.8Z"/><path class="cls-2" d="M78.6,109.07c.94-.16,1,.57.55,1.73C116.49,75.24,191.73,0,191.73,0,150.7,36.21,103.85,83.24,78.6,109.07Z"/><ellipse class="cls-3" cx="96.92" cy="94.15" rx="28.65" ry="21.8" transform="matrix(0.73, -0.68, 0.68, 0.73, -38.17, 91.36)"/><circle class="cls-4" cx="82.54" cy="107.2" r="7.82"/><path class="cls-5" d="M78.6,109.07c-11.46,11.72-18.47,19.08-18.47,19.08,2.91-2.23,9.82-8.59,19-17.35C79.58,109.65,79.54,108.91,78.6,109.07Z"/><path class="cls-6" d="M199.76,157.71"/><path class="cls-7" d="M56.34,134.05c7.84,1.82,41.36,8.65,70.06.07a3.4,3.4,0,0,0,2.16-2L162,54.41c-57.1-4.82-118.36-2.18-141.41-.08L54,132A3.37,3.37,0,0,0,56.34,134.05Z"/><path class="cls-8" d="M56.34,134.05c7.84,1.82,41.36,8.65,70.06.07a3.4,3.4,0,0,0,2.16-2L178.51,16H4.09L54,132A3.37,3.37,0,0,0,56.34,134.05Z"/><line class="cls-9" x1="55.63" y1="113.39" x2="23.36" y2="33.8"/><line class="cls-10" x1="130.36" y1="137.06" x2="126.09" y2="146.68"/><path class="cls-10" d="M53.59,138.9l2.79,6.33s3.61,3.68,20.22,4.06"/></g></g></svg>