<svg xmlns="http://www.w3.org/2000/svg" viewBox="0 0 202.55 166.48"><defs><style>.cls-1{fill:#fffad2;}.cls-2{fill:#f9f2ca;}.cls-3{fill:#cec019;}.cls-4,.cls-6,.cls-8,.cls-9{fill:none;stroke:#fff;}.cls-4,.cls-6{stroke-miterlimit:10;}.cls-4,.cls-9{stroke-width:0.75px;}.cls-5{fill:#fffadc;opacity:0.57;}.cls-6{stroke-width:0.5px;}.cls-7{fill:#edda2e;}.cls-8,.cls-9{stroke-linecap:round;stroke-linejoin:round;}</style></defs><title>Asset 23</title><g id="Layer_2" data-name="Layer 2"><g id="Vespar"><path class="cls-1" d="M194.62,6.47s4.94,24.06,7.93,27.15c0,0-10.54,6-13.49-3.41,0,0-9.46-27.53-7.25-30.15C181.81.06,188.41-1,194.62,6.47Z"/><path class="cls-2" d="M154.21,31.19s5.19,22.52,8.19,25.62c0,0-11.46,4-13.49-3.41,0,0-9.54-27.59-7.32-30.21C141.58,23.19,148,23.68,154.21,31.19Z"/><path class="cls-2" d="M127.2,55.08s4.94,24.06,7.93,27.15c0,0-11.46,4-13.49-3.41,0,0-9.46-27.53-7.25-30.15C114.39,48.67,121,47.57,127.2,55.08Z"/><path class="cls-3" d="M126.48,41.78s32,16.78,35.92,15c0,0-8.51,9.3-12.5,10.1,0,0-33.84-15.22-35.55-18.2C114.35,48.7,117.3,45,126.48,41.78Z"/><path class="cls-4" d="M.64,32.68,52.91,159.62a3.47,3.47,0,0,0,2.42,2.06c8.06,1.87,42.55,8.9,72.08.07a3.5,3.5,0,0,0,2.22-2L182,32.68a3.48,3.48,0,0,0-3.22-4.81H3.86A3.48,3.48,0,0,0,.64,32.68Z"/><path class="cls-5" d="M56.34,145.92c7.84,1.82,41.36,8.65,70.06.07a3.4,3.4,0,0,0,2.16-2L162,66.29c-57.1-4.82-118.36-2.18-141.41-.08L54,143.92A3.37,3.37,0,0,0,56.34,145.92Z"/><path class="cls-6" d="M56.34,145.92c7.84,1.82,41.36,8.65,70.06.07a3.4,3.4,0,0,0,2.16-2L178.51,27.87H4.09L54,143.92A3.37,3.37,0,0,0,56.34,145.92Z"/><path class="cls-7" d="M157,14.36c-3.13-1.64,37.83,22.69,45.52,19.27,0,0-10.6,11.73-15.68,12.74,0,0-43.12-19.39-45.29-23.18C141.58,23.19,145.33,18.52,157,14.36Z"/><line class="cls-8" x1="61.36" y1="130.29" x2="28.09" y2="51.11"/><line class="cls-9" x1="130.62" y1="148.94" x2="126.35" y2="158.55"/><path class="cls-9" d="M53.59,150.77l2.79,6.33s3.61,3.68,20.22,4.06"/></g></g></svg>