<svg xmlns="http://www.w3.org/2000/svg" viewBox="0 0 154.36 184.97"><defs><style>.cls-1{fill:#f9f2ca;}.cls-2{fill:#cec019;}.cls-10,.cls-3,.cls-6,.cls-9{fill:none;stroke:#fff;}.cls-3,.cls-6{stroke-miterlimit:10;}.cls-10,.cls-3{stroke-width:0.75px;}.cls-4{fill:#f2e283;opacity:0.71;}.cls-5{fill:#fffdf5;}.cls-6{stroke-width:0.5px;}.cls-7{fill:#fffad2;}.cls-8{fill:#edda2e;}.cls-10,.cls-9{stroke-linecap:round;stroke-linejoin:round;}</style></defs><title>Asset 10</title><g id="Layer_2" data-name="Layer 2"><g id="WhiskeySour"><path class="cls-1" d="M113.37,29.43s6.8,18.42,9.65,20.71c0,0-9.22,4.64-11.74-1.43,0,0-11-22.22-9.42-24.67C101.86,24,107.32,23.76,113.37,29.43Z"/><path class="cls-1" d="M93.18,52.46s6.75,19.74,9.6,22c0,0-9.22,4.64-11.74-1.43,0,0-10.93-22.18-9.35-24.63C81.69,48.43,87.14,46.8,93.18,52.46Z"/><path class="cls-2" d="M91.14,41.32S119.9,52,123,50.12c0,0-6.17,8.75-9.44,9.85,0,0-30.16-9.19-31.91-11.51C81.67,48.47,83.76,45.07,91.14,41.32Z"/><path class="cls-3" d="M.38,174.38V36.68a3.48,3.48,0,0,1,3.13-3.47c14.06-1.41,72.89-6.59,124.61-.07a3.49,3.49,0,0,1,3,3.47V174.34a3.47,3.47,0,0,1-2.72,3.4C115.57,180.6,59,191.6,3,177.78A3.5,3.5,0,0,1,.38,174.38Z"/><path class="cls-4" d="M5.83,155.49c54.95,14,110.89,2.07,119.87,0a1.62,1.62,0,0,0,1.25-1.59V92.29c-50.2-6.15-106.7-1.44-122.35.1v61.5A1.65,1.65,0,0,0,5.83,155.49Z"/><path class="cls-5" d="M5.83,118.87c50-8.46,92.92,1.77,119.87,0a1.51,1.51,0,0,0,1.25-1.59V87.06c-50.2-6.15-106.7-1.44-122.35.1v30.12C4.59,118,5.09,119,5.83,118.87Z"/><path class="cls-6" d="M5.83,155.49c54.95,14,110.89,2.07,119.87,0a1.62,1.62,0,0,0,1.25-1.59V33c-50.2-6.15-106.7-1.44-122.35.1V153.89A1.65,1.65,0,0,0,5.83,155.49Z"/><path class="cls-7" d="M144.76,4.24s6.75,19.74,9.6,22c0,0-8.24,6.17-11.74-1.43,0,0-10.93-22.18-9.35-24.63C133.28.22,138.72-1.42,144.76,4.24Z"/><path class="cls-8" d="M113.94,14.94c-2.82-1,34.32,15.05,40.43,11.34,0,0-7.67,11-11.84,12.42,0,0-38.42-11.7-40.66-14.66C101.86,24,104.53,19.71,113.94,14.94Z"/><line class="cls-9" x1="19.85" y1="149.69" x2="19.85" y2="48.54"/><line class="cls-10" x1="126.51" y1="160.43" x2="126.51" y2="172.57"/><path class="cls-10" d="M5.17,160.43v12.13a125.87,125.87,0,0,0,38,6.28"/></g></g></svg>